<svg width="35" height="30" viewBox="0 0 35 30" fill="none" xmlns="http://www.w3.org/2000/svg">
<path d="M2 13C0.89543 13 2.26448e-08 13.8954 1.19209e-07 15C2.15774e-07 16.1046 0.895431 17 2 17L2 13ZM34.4142 16.4142C35.1953 15.6332 35.1953 14.3668 34.4142 13.5858L21.6863 0.857863C20.9052 0.076815 19.6389 0.0768151 18.8579 0.857864C18.0768 1.63891 18.0768 2.90524 18.8579 3.68629L30.1716 15L18.8579 26.3137C18.0768 27.0948 18.0768 28.3611 18.8579 29.1421C19.6389 29.9232 20.9052 29.9232 21.6863 29.1421L34.4142 16.4142ZM2 17L33 17L33 13L2 13L2 17Z" fill="black"/>
</svg>
