<svg width="42" height="43" viewBox="0 0 42 43" fill="none" xmlns="http://www.w3.org/2000/svg">
<path fill-rule="evenodd" clip-rule="evenodd" d="M21 5.49951C16.7223 5.49951 16.1868 5.51736 14.5068 5.59401C12.8299 5.67066 11.6844 5.93736 10.6827 6.32691C9.6327 6.72171 8.68035 7.34121 7.89285 8.14341C7.09193 8.93 6.47205 9.88168 6.07635 10.9322C5.6889 11.9339 5.42115 13.0805 5.3445 14.7574C5.2689 16.4363 5.25 16.9708 5.25 21.2495C5.25 25.5283 5.26785 26.0627 5.3445 27.7427C5.42115 29.4196 5.68785 30.5651 6.0774 31.5668C6.4722 32.6168 7.0917 33.5692 7.8939 34.3567C8.68051 35.1576 9.63218 35.7774 10.6827 36.1732C11.6844 36.5617 12.8299 36.8284 14.5068 36.905C16.1868 36.9817 16.7223 36.9995 21 36.9995C25.2777 36.9995 25.8132 36.9817 27.4932 36.905C29.17 36.8284 30.3156 36.5617 31.3173 36.1721C32.3673 35.7773 33.3196 35.1578 34.1071 34.3556C34.9081 33.569 35.5279 32.6173 35.9236 31.5668C36.3121 30.5651 36.5788 29.4196 36.6555 27.7427C36.7321 26.0627 36.75 25.5272 36.75 21.2495C36.75 16.9718 36.7321 16.4363 36.6555 14.7563C36.5788 13.0795 36.3121 11.9339 35.9226 10.9322C35.5272 9.88123 34.9073 8.92915 34.1061 8.14236C33.3195 7.34144 32.3678 6.72156 31.3173 6.32586C30.3156 5.93841 29.169 5.67066 27.4921 5.59401C25.8132 5.51841 25.2787 5.49951 21 5.49951ZM21 8.33766C25.2052 8.33766 25.704 8.35341 27.3651 8.42901C28.9002 8.49936 29.7339 8.75451 30.2893 8.97186C31.0243 9.25641 31.5493 9.59871 32.1006 10.1489C32.6518 10.7002 32.9931 11.2252 33.2776 11.9602C33.4939 12.5156 33.7501 13.3493 33.8205 14.8844C33.8961 16.5455 33.9118 17.0443 33.9118 21.2495C33.9118 25.4548 33.8961 25.9535 33.8205 27.6146C33.7501 29.1497 33.495 29.9834 33.2776 30.5389C33.0256 31.223 32.6234 31.8419 32.1006 32.3501C31.5925 32.873 30.9735 33.2752 30.2893 33.5272C29.7339 33.7435 28.9002 33.9997 27.3651 34.07C25.704 34.1456 25.2063 34.1614 21 34.1614C16.7937 34.1614 16.296 34.1456 14.6349 34.07C13.0998 33.9997 12.2661 33.7445 11.7106 33.5272C11.0265 33.2751 10.4076 32.8729 9.8994 32.3501C9.37669 31.8419 8.97448 31.223 8.72235 30.5389C8.50605 29.9834 8.24985 29.1497 8.1795 27.6146C8.1039 25.9535 8.08815 25.4548 8.08815 21.2495C8.08815 17.0443 8.1039 16.5455 8.1795 14.8844C8.24985 13.3493 8.505 12.5156 8.72235 11.9602C9.0069 11.2252 9.3492 10.7002 9.8994 10.1489C10.4075 9.62606 11.0265 9.22384 11.7106 8.97186C12.2661 8.75556 13.0998 8.49936 14.6349 8.42901C16.296 8.35341 16.7947 8.33766 21 8.33766V8.33766Z" fill="black"/>
<path fill-rule="evenodd" clip-rule="evenodd" d="M21 26.5046C20.3099 26.5046 19.6265 26.3687 18.9889 26.1046C18.3513 25.8405 17.772 25.4534 17.284 24.9654C16.796 24.4774 16.4089 23.8981 16.1448 23.2605C15.8807 22.6229 15.7448 21.9395 15.7448 21.2494C15.7448 20.5593 15.8807 19.8759 16.1448 19.2383C16.4089 18.6007 16.796 18.0214 17.284 17.5334C17.772 17.0454 18.3513 16.6583 18.9889 16.3942C19.6265 16.1301 20.3099 15.9941 21 15.9941C22.3938 15.9941 23.7305 16.5478 24.716 17.5334C25.7016 18.5189 26.2553 19.8556 26.2553 21.2494C26.2553 22.6432 25.7016 23.9799 24.716 24.9654C23.7305 25.951 22.3938 26.5046 21 26.5046V26.5046ZM21 13.1539C18.8529 13.1539 16.7938 14.0068 15.2756 15.525C13.7574 17.0432 12.9045 19.1023 12.9045 21.2494C12.9045 23.3964 13.7574 25.4556 15.2756 26.9738C16.7938 28.492 18.8529 29.3449 21 29.3449C23.1471 29.3449 25.2062 28.492 26.7244 26.9738C28.2426 25.4556 29.0955 23.3964 29.0955 21.2494C29.0955 19.1023 28.2426 17.0432 26.7244 15.525C25.2062 14.0068 23.1471 13.1539 21 13.1539V13.1539ZM31.4507 13.0069C31.4507 13.5144 31.249 14.0012 30.8902 14.36C30.5313 14.7189 30.0446 14.9205 29.537 14.9205C29.0295 14.9205 28.5428 14.7189 28.1839 14.36C27.825 14.0012 27.6234 13.5144 27.6234 13.0069C27.6234 12.4994 27.825 12.0126 28.1839 11.6537C28.5428 11.2949 29.0295 11.0933 29.537 11.0933C30.0446 11.0933 30.5313 11.2949 30.8902 11.6537C31.249 12.0126 31.4507 12.4994 31.4507 13.0069" fill="black"/>
</svg>
