<svg width="251" height="30" viewBox="0 0 251 30" fill="none" xmlns="http://www.w3.org/2000/svg">
<path d="M0.86377 4.54793V8.78711H2.9228H4.98183V4.54793V0.308745H2.9228H0.86377V4.54793Z" fill="white"/>
<path d="M7.40424 4.54793V8.78711H9.46327H11.5223V4.54793V0.308745H9.46327H7.40424V4.54793Z" fill="white"/>
<path d="M13.9447 4.54793V8.78711H16.1248H18.305V4.54793V0.308745H16.1248H13.9447V4.54793Z" fill="white"/>
<path d="M26.7833 14.504V28.6992L32.4275 28.6023C37.6114 28.5054 38.1928 28.457 39.7431 27.9241C44.0792 26.4222 46.332 21.5532 44.709 17.1929C44.055 15.4245 42.8195 14.2376 40.6394 13.2444C40.5909 13.2201 41.0996 12.663 41.7295 12.0332C44.6606 9.10209 43.8612 4.03929 40.0822 1.64113C38.3381 0.526829 37.0058 0.308813 31.7008 0.308813H26.7833V14.504ZM37.1269 5.83186C38.653 6.92194 38.6773 9.44122 37.1512 10.5313C36.5213 10.9673 35.9642 11.0884 34.1232 11.1611L31.8703 11.258V8.18158V5.10514L34.1232 5.20204C35.9884 5.25049 36.4729 5.37161 37.1269 5.83186ZM37.9263 16.8295C40.5667 18.186 40.6636 21.7954 38.0959 23.1277C37.2965 23.5395 36.5213 23.6606 34.4865 23.7575L31.8703 23.8787V20.0755V16.2966H34.3654C36.4729 16.2966 37.03 16.3935 37.9263 16.8295Z" fill="white"/>
<path d="M109.629 14.4797V28.6507H111.93H114.232V27.5606C114.232 26.9551 114.304 26.4706 114.377 26.4706C114.45 26.4706 114.958 26.8339 115.515 27.2942C117.308 28.7234 119.149 29.3774 121.499 29.3774C126.513 29.3774 130.437 26.1314 131.794 20.778C133.126 15.5214 130.68 9.99833 125.908 7.64861C124.139 6.75232 123.994 6.7281 121.523 6.7281C119.173 6.75232 118.81 6.80077 117.381 7.47904C116.509 7.89085 115.661 8.39955 115.467 8.61756C115.297 8.83558 115.055 9.02937 114.934 9.02937C114.813 9.02937 114.716 7.06723 114.716 4.66907V0.308767H112.173H109.629V14.4797ZM122.686 11.5971C127.191 12.9294 128.596 19.3972 125.132 22.8612C121.257 26.737 114.934 24.1209 114.522 18.4525C114.377 16.1996 114.934 14.6009 116.412 13.1232C118.18 11.3549 120.215 10.8462 122.686 11.5971Z" fill="white"/>
<path d="M190.537 14.504V28.6992L196.181 28.5781C204.151 28.4085 206.234 27.8029 209.31 24.6781C212.048 21.8923 213.356 18.5979 213.356 14.4798C213.356 8.88407 210.594 3.99084 206.282 1.93181C203.497 0.599499 201.535 0.308813 195.624 0.308813H190.537V14.504ZM202.455 5.85608C206.307 7.33374 208.753 11.7909 208.051 15.9332C207.155 21.1171 203.521 23.806 197.392 23.806H195.866V14.4556V5.08092L198.482 5.20204C200.348 5.29893 201.462 5.4685 202.455 5.85608Z" fill="white"/>
<path d="M221.325 14.3588C218.128 22.0862 215.487 28.4571 215.487 28.5298C215.487 28.6024 216.771 28.6509 218.346 28.6509H221.204L222.658 25.0657L224.135 21.5048L229.319 21.4564L234.503 21.3837L235.981 24.9688L237.434 28.5298L240.293 28.6024C242.957 28.6509 243.151 28.6267 243.054 28.2391C242.982 27.9968 240.39 21.7471 237.289 14.3588C234.188 6.97049 231.621 0.769175 231.548 0.599607C231.451 0.405817 230.773 0.308922 229.295 0.308922H227.163L221.325 14.3588ZM230.87 11.7426C231.669 13.8985 232.347 15.788 232.396 15.9818C232.468 16.224 231.814 16.2967 229.319 16.2967C227.575 16.2967 226.146 16.224 226.146 16.1029C226.146 15.7395 229.126 7.81833 229.271 7.81833C229.344 7.81833 230.07 9.58667 230.87 11.7426Z" fill="white"/>
<path d="M55.1253 6.97057C51.5159 7.98797 48.7302 10.9191 47.7128 14.7222C47.2525 16.3937 47.2767 19.785 47.7612 21.408C48.9482 25.405 51.5402 28.0696 55.2222 29.0385C58.2017 29.8379 61.8595 28.9901 64.185 26.9553C64.6211 26.5435 65.0571 26.2286 65.154 26.2286C65.2267 26.2286 65.2993 26.7615 65.2993 27.4398V28.651H67.6006H69.9019V17.9924V7.33393H67.6006H65.2993V8.54512C65.2993 9.19917 65.2267 9.75632 65.154 9.75632C65.0813 9.75632 64.5726 9.36873 64.0155 8.90848C61.6657 6.87367 58.1775 6.12273 55.1253 6.97057ZM60.6726 11.5973C62.5136 12.1303 64.1608 13.8259 64.718 15.7154C66.1956 20.8509 62.344 25.5503 57.4508 24.5329C54.2532 23.8788 52.2669 21.0447 52.5091 17.508C52.7271 14.6738 54.4228 12.324 56.821 11.5731C58.2744 11.1371 59.1465 11.1371 60.6726 11.5973Z" fill="white"/>
<path d="M81.3356 7.06739C80.6331 7.30963 79.6641 7.86678 79.2039 8.32703L78.3803 9.12642V8.23013V7.33385H76.079H73.7777V17.9924V28.6509H76.3212H78.8647V22.2315C78.8647 18.5011 78.9858 15.3277 79.1312 14.601C80.0033 10.483 85.0903 10.0469 86.7617 13.947C87.1493 14.819 87.222 15.8607 87.2946 21.7955L87.3915 28.6509H89.7655H92.1394L92.2363 21.7955C92.3332 16.0302 92.4059 14.819 92.7692 13.9954C93.3022 12.7358 93.8109 12.2029 94.9736 11.6699C96.209 11.0886 97.1295 11.1128 98.4376 11.6942C99.2855 12.0817 99.5762 12.3966 100.061 13.4383C100.666 14.6979 100.666 14.7948 100.666 21.6744V28.6509H103.234H105.777L105.705 20.8508C105.608 11.5004 105.535 11.2097 103.355 9.0053C102.168 7.81833 101.684 7.52764 100.182 7.06739C96.7904 6.04998 93.3506 6.72825 91.2431 8.81151L90.2742 9.78046L89.2083 8.71461C87.2462 6.75248 84.1455 6.09843 81.3356 7.06739Z" fill="white"/>
<path d="M142.331 6.99465C140.2 7.57603 138.916 8.32697 137.22 9.99841C134.677 12.5177 133.683 15.1823 133.926 18.9128C134.337 25.8166 141.265 30.7583 148.024 29.0142C151.003 28.239 153.91 26.0104 155.17 23.588C157.059 19.8575 156.817 14.9643 154.516 11.5245C151.948 7.6487 146.885 5.75923 142.331 6.99465ZM146.982 11.5972C151.44 13.0991 152.845 19.3246 149.526 22.7886C148.29 24.0967 147.055 24.6297 145.238 24.6297C141.58 24.6297 138.94 21.8439 138.94 17.9923C138.94 14.9159 140.587 12.5904 143.518 11.5487C144.681 11.1127 145.65 11.1369 146.982 11.5972Z" fill="white"/>
<path d="M166.628 6.97057C160.548 8.6178 156.89 14.7949 158.44 20.7782C158.973 22.813 159.942 24.4602 161.468 25.9863C168.033 32.551 179.055 29.0385 180.605 19.8819C181.598 14.0197 177.989 8.47245 172.199 6.97057C170.504 6.53454 168.299 6.53454 166.628 6.97057ZM172.224 12.0334C174.428 13.3172 175.615 15.4732 175.591 18.1136C175.591 20.0999 175.155 21.2142 173.895 22.6192C172.587 24.0484 171.352 24.6298 169.438 24.6298C168.13 24.6298 167.645 24.5087 166.531 23.9031C162.704 21.7472 162.001 16.2968 165.174 13.1961C167.233 11.1613 169.995 10.7253 172.224 12.0334Z" fill="white"/>
<path d="M0.86377 14.8433V19.2036H2.9228H4.98183V14.8433V10.483H2.9228H0.86377V14.8433Z" fill="white"/>
<path d="M7.40424 14.8433V19.2036H9.46327H11.5223V14.8433V10.483H9.46327H7.40424V14.8433Z" fill="white"/>
<path d="M13.9447 14.8433V19.2036H16.1248H18.305V14.8433V10.483H16.1248H13.9447V14.8433Z" fill="white"/>
<path d="M0.86377 25.0171V29.3774H2.9228H4.98183V25.0171V20.6568H2.9228H0.86377V25.0171Z" fill="white"/>
<path d="M7.40424 25.0171V29.3774H9.46327H11.5223V25.0171V20.6568H9.46327H7.40424V25.0171Z" fill="white"/>
<path d="M13.9447 25.0171V29.3774H16.1248H18.305V25.0171V20.6568H16.1248H13.9447V25.0171Z" fill="white"/>
<path d="M246.276 22.5221C244.484 23.4669 243.926 25.5017 244.992 27.2458C246.276 29.3048 249.353 29.1353 250.491 26.9551C251.92 24.1936 248.965 21.1171 246.276 22.5221ZM248.916 23.2489C249.861 23.9029 250.103 24.3389 250.128 25.4048C250.128 27.3669 248.311 28.5781 246.591 27.7787C244.75 26.9067 244.556 24.5085 246.228 23.3942C247.197 22.7401 248.093 22.6917 248.916 23.2489Z" fill="white"/>
<path d="M246.494 25.3564C246.494 26.6161 246.567 26.9552 246.857 26.9552C247.1 26.9552 247.221 26.713 247.221 26.3012V25.6471L247.899 26.3012C248.577 26.9552 249.159 27.149 249.159 26.7614C249.159 26.6403 248.941 26.3496 248.674 26.1074C248.214 25.6956 248.214 25.6229 248.577 25.2353C249.28 24.4602 248.917 23.9272 247.633 23.8546L246.494 23.7819V25.3564ZM248.069 24.7751C248.069 24.9689 247.875 25.1627 247.657 25.2111C247.342 25.2596 247.221 25.1384 247.221 24.7751C247.221 24.4117 247.342 24.2906 247.657 24.339C247.875 24.3875 248.069 24.5813 248.069 24.7751Z" fill="white"/>
</svg>
