<svg width="51" height="51" viewBox="0 0 51 51" fill="none" xmlns="http://www.w3.org/2000/svg">
<path d="M45.7699 10.5275C42.8715 6.52153 38.8503 3.46499 34.2148 1.7444C29.5793 0.0238114 24.5377 -0.283552 19.7275 0.86118C14.9173 2.00591 10.5545 4.55133 7.19099 8.17554C3.82744 11.7998 1.61412 16.34 0.830937 21.2221C0.0477497 26.1042 0.729867 31.1089 2.79103 35.6034C4.85219 40.0978 8.19981 43.8801 12.4106 46.472C16.6214 49.0639 21.5061 50.3489 26.4472 50.1646C31.3883 49.9803 36.1638 48.3349 40.1698 45.4365C45.5352 41.5451 49.1381 35.6843 50.1879 29.1399C51.2378 22.5955 49.6489 15.9019 45.7699 10.5275ZM29.9618 32.8777L31.8038 22.9405L15.5534 34.419L13.3378 31.2748L29.2504 20.0347L19.9517 18.3124L20.6485 14.5267L36.718 17.5039L33.7436 33.5773L29.9618 32.8777Z" fill="white"/>
</svg>
